<svg class="mx-auto svg-logo" width="254" height="292" xmlns="http://www.w3.org/2000/svg" xmlns:svg="http://www.w3.org/2000/svg">
				  <g id="svg_4">
				   <path fill="#000000" fill-opacity="0" stroke="#ed4949" stroke-width="5" stroke-linejoin="round" stroke-linecap="round" d="m250.57702,216.505667l-123.78849,71.4693l-123.78851,-71.46933l-0.00002,-142.93863l123.7885,-71.46932l123.78851,71.46933l0.00001,142.93865" id="svg_5"/>
				   <path class="path2" fill="#000000" fill-opacity="0" stroke="#ed4949" stroke-width="5" stroke-dasharray="null" stroke-linejoin="null" stroke-linecap="null" d="m162.73283,267.247567l-35.94428,20.75244l-35.94431,-20.75246l-0.00003,-41.50489l35.94432,-20.75244l35.94431,20.75245l-0.00001,41.5049" id="svg_6"/>
				   <text font-family="Rye" font-weight="normal" stroke="#ed4949" transform="matrix(2.420132855723616,0,0,2.642177665500001,-395.8934286725311,-302.83926813695746) " xml:space="preserve" text-anchor="middle" font-size="24" id="svg_1" y="165.249593" x="215.97117" stroke-linecap="null" stroke-linejoin="null" stroke-dasharray="null" stroke-width="0" fill="#ed4949">KEI</text>
				   <text font-family="Rye" font-weight="normal" font-style="italic" stroke="#ed4949" xml:space="preserve" text-anchor="middle" font-size="24" id="svg_2" y="159.036317" x="126.45257" stroke-linecap="null" stroke-linejoin="null" stroke-dasharray="null" stroke-width="0" fill="#ed4949">evenings</text>
				   <path class="path3" fill="#ed4949" stroke="#ed4949" stroke-width="4" stroke-dasharray="null" stroke-linejoin="null" stroke-linecap="null" d="m109.78852,229.036317l11,0l0,7l-11,0l0,-7z" id="svg_3"/>
				   <path class="path3" fill="#ed4949" stroke="#ed4949" stroke-width="4" stroke-dasharray="null" stroke-linejoin="null" stroke-linecap="null" d="m132.28852,229.036317l11,0l0,7l-11,0l0,-7z" id="svg_8"/>
				   <path class="path3" fill="#ed4949" stroke="#ed4949" stroke-width="4" stroke-dasharray="null" stroke-linejoin="null" stroke-linecap="null" d="m109.78852,244.536317l11,0l0,7l-11,0l0,-7z" id="svg_9"/>
				   <path class="path3" fill="#ed4949" stroke="#ed4949" stroke-width="4" stroke-dasharray="null" stroke-linejoin="null" stroke-linecap="null" d="m132.28852,244.536317l11,0l0,7l-11,0l0,-7z" id="svg_10"/>
				   <path fill="#000000" fill-opacity="0" stroke="#ed4949" stroke-width="5" stroke-dasharray="null" stroke-linejoin="null" stroke-linecap="null" d="m149.78852,205.036317l3,0l0,11l-3,0l0,-11z" id="svg_11"/>
				  </g>
				</svg>